<svg width="14" height="14" viewBox="0 0 14 14" fill="none" xmlns="http://www.w3.org/2000/svg">
<g clip-path="url(#clip0_1_265)">
<path d="M13.622 6.08932C13.6217 6.089 13.6214 6.08868 13.621 6.08836L7.91014 0.377686C7.66672 0.134155 7.34308 0 6.99882 0C6.65457 0 6.33093 0.134048 6.0874 0.377579L0.3795 6.08537C0.377578 6.0873 0.375655 6.08932 0.373733 6.09125C-0.126145 6.59401 -0.125291 7.40973 0.376189 7.91121C0.6053 8.14043 0.907897 8.27319 1.23143 8.28708C1.24457 8.28836 1.25781 8.289 1.27116 8.289H1.49878V12.4917C1.49878 13.3233 2.17543 14 3.00728 14H5.24156C5.468 14 5.65172 13.8164 5.65172 13.5898V10.2949C5.65172 9.91542 5.9604 9.60674 6.3399 9.60674H7.65774C8.03724 9.60674 8.34593 9.91542 8.34593 10.2949V13.5898C8.34593 13.8164 8.52954 14 8.75609 14H10.9904C11.8222 14 12.4989 13.3233 12.4989 12.4917V8.289H12.7099C13.0541 8.289 13.3777 8.15495 13.6214 7.91142C14.1234 7.40909 14.1236 6.59198 13.622 6.08932Z" fill="#52BFFF"/>
</g>
<defs>
<clipPath id="clip0_1_265">
<rect width="14" height="14" fill="white"/>
</clipPath>
</defs>
</svg>
