<svg width="16" height="17" viewBox="0 0 16 17" fill="none" xmlns="http://www.w3.org/2000/svg">
<path fill-rule="evenodd" clip-rule="evenodd" d="M11.2535 0.686523H4.28918C1.92413 0.686523 0 2.61074 0 4.97579V11.9401C0 14.3053 1.92413 16.2294 4.28918 16.2294H11.2535C13.6187 16.2294 15.5429 14.3052 15.5429 11.9401V4.97579C15.543 2.61074 13.6187 0.686523 11.2535 0.686523ZM7.77141 4.45295C5.56302 4.45295 3.76641 6.24956 3.76641 8.45795C3.76641 10.6663 5.56302 12.4628 7.77141 12.4628C9.9798 12.4628 11.7764 10.6663 11.7764 8.45795C11.7764 6.24956 9.9798 4.45295 7.77141 4.45295ZM7.77141 11.0836C6.32351 11.0836 5.14544 9.90576 5.14544 8.45786C5.14544 7.00987 6.32342 5.8319 7.77141 5.8319C9.2194 5.8319 10.3974 7.00987 10.3974 8.45786C10.3974 9.90576 9.21931 11.0836 7.77141 11.0836ZM11.23 3.57967C11.4177 3.3912 11.6787 3.28363 11.9444 3.28363C12.211 3.28363 12.4721 3.3912 12.6596 3.57967C12.8481 3.76721 12.9556 4.02831 12.9556 4.29493C12.9556 4.56062 12.8481 4.82172 12.6596 5.01019C12.4711 5.19774 12.211 5.30622 11.9444 5.30622C11.6787 5.30622 11.4176 5.19774 11.23 5.01019C11.0415 4.82172 10.9331 4.56071 10.9331 4.29493C10.9331 4.02831 11.0414 3.76721 11.23 3.57967Z" fill="#52BFFF"/>
</svg>
